<?xml version="1.0" encoding="UTF-8"?>
<!DOCTYPE svg PUBLIC "-//W3C//DTD SVG 1.1//EN" "http://www.w3.org/Graphics/SVG/1.1/DTD/svg11.dtd">
<!-- Creator: CorelDRAW 2018 (64-Bit Evaluation Version) -->
<svg xmlns="http://www.w3.org/2000/svg" xml:space="preserve" width="0.1in" height="0.1in" version="1.1" style="shape-rendering:geometricPrecision; text-rendering:geometricPrecision; image-rendering:optimizeQuality; fill-rule:evenodd; clip-rule:evenodd"
viewBox="0 0 100 100"
 xmlns:xlink="http://www.w3.org/1999/xlink">
 <defs>
  <style type="text/css">
   <![CDATA[
    .str0 {stroke:#305885;stroke-width:3;stroke-miterlimit:22.9256}
    .fil0 {fill:#305885}
   ]]>
  </style>
 </defs>
 <g id="Layer_x0020_1">
  <metadata id="CorelCorpID_0Corel-Layer"/>
  <path class="fil0 str0" d="M70.39 36.17l12.59 -20.15c0.25,-0.4 0.27,-0.91 0.04,-1.32 -0.23,-0.41 -0.67,-0.67 -1.14,-0.67l-58.61 0 0 -2.61c0,-0.72 -0.58,-1.3 -1.3,-1.3 -0.72,0 -1.3,0.58 -1.3,1.3l0 3.91 0 37.77 0 3.91 0 29.96c0,0.72 0.58,1.3 1.3,1.3 0.72,0 1.3,-0.58 1.3,-1.3l0 -28.65 58.61 0c0.47,0 0.91,-0.26 1.14,-0.67 0.23,-0.41 0.22,-0.92 -0.04,-1.32l-12.59 -20.15zm-47.12 19.54l0 -2.61 0 -36.47 56.26 0 -11.78 18.85c-0.26,0.43 -0.26,0.96 0,1.38l11.78 18.85 -56.26 0z"/>
 </g>
</svg>
