<?xml version="1.0" encoding="UTF-8"?>
<!DOCTYPE svg PUBLIC "-//W3C//DTD SVG 1.1//EN" "http://www.w3.org/Graphics/SVG/1.1/DTD/svg11.dtd">
<!-- Creator: CorelDRAW 2018 (64-Bit Evaluation Version) -->
<svg xmlns="http://www.w3.org/2000/svg" xml:space="preserve" width="0.1in" height="0.12in" version="1.1" style="shape-rendering:geometricPrecision; text-rendering:geometricPrecision; image-rendering:optimizeQuality; fill-rule:evenodd; clip-rule:evenodd"
viewBox="0 0 100 120"
 xmlns:xlink="http://www.w3.org/1999/xlink">
 <defs>
  <style type="text/css">
   <![CDATA[
    .str0 {stroke:#305885;stroke-width:3;stroke-miterlimit:22.9256}
    .fil0 {fill:#305885}
   ]]>
  </style>
 </defs>
 <g id="Layer_x0020_1">
  <metadata id="CorelCorpID_0Corel-Layer"/>
  <path class="fil0 str0" d="M92.11 24.48l-12.08 0 0 -10.51c0,-1.19 -0.96,-2.15 -2.15,-2.15l-50.26 0c-1.19,0 -2.15,0.96 -2.15,2.15l0 10.51 -12.07 0c-1.18,0 -2.14,0.96 -2.14,2.15 0,9.81 5.94,18.67 14.92,22.44 2.3,9.87 9.98,17.71 19.77,20.23 0.39,4.98 -2.94,9.65 -7.94,10.78 -0.02,0.01 -0.04,0.01 -0.06,0.02 -0.04,0.01 -0.09,0.02 -0.13,0.04 -0.03,0.01 -0.06,0.02 -0.09,0.03 -0.04,0.01 -0.07,0.03 -0.11,0.04 -0.04,0.02 -0.07,0.03 -0.1,0.05 -0.03,0.02 -0.06,0.03 -0.09,0.04 -0.04,0.02 -0.07,0.04 -0.11,0.07 -0.02,0.01 -0.04,0.03 -0.07,0.04 -0.04,0.03 -0.07,0.06 -0.11,0.08 -0.02,0.02 -0.04,0.03 -0.06,0.04 -0.04,0.03 -0.07,0.06 -0.1,0.09 -0.02,0.02 -0.04,0.03 -0.05,0.05 -0.03,0.03 -0.06,0.06 -0.09,0.09 -0.02,0.02 -0.04,0.04 -0.05,0.06 -0.02,0.03 -0.05,0.07 -0.07,0.1 -0.02,0.02 -0.04,0.05 -0.05,0.07 -0.02,0.03 -0.04,0.06 -0.06,0.1 -0.02,0.03 -0.03,0.06 -0.05,0.08 -0.02,0.03 -0.03,0.07 -0.05,0.1 -0.02,0.03 -0.03,0.06 -0.04,0.09 -0.02,0.04 -0.03,0.07 -0.04,0.11 -0.01,0.03 -0.02,0.05 -0.02,0.08 -0.02,0.04 -0.03,0.09 -0.04,0.13 -0,0.02 -0.01,0.04 -0.02,0.07 -0.01,0.05 -0.02,0.11 -0.02,0.16 -0,0.02 -0,0.03 -0.01,0.05 -0,0.06 -0.01,0.12 -0.01,0.18 0,0.01 0,0.02 0,0.03l0 0.02c0,0.01 -0,0.02 0,0.03l0 6.39 -6.01 0c-1.18,0 -2.14,0.96 -2.14,2.14l0 15.01c0,1.19 0.96,2.15 2.14,2.15l45.04 0c1.19,0 2.15,-0.96 2.15,-2.15l0 -15.01c0,-1.19 -0.96,-2.14 -2.15,-2.14l-6 0 0 -6.43c0,-0.57 -0.22,-1.08 -0.58,-1.47 0,0 -0,-0 -0.01,-0.01 -0.04,-0.04 -0.09,-0.09 -0.13,-0.13 -0.01,-0.01 -0.02,-0.02 -0.02,-0.02 -0.04,-0.04 -0.09,-0.07 -0.13,-0.11 -0.01,-0.01 -0.02,-0.02 -0.03,-0.02 -0.04,-0.03 -0.09,-0.06 -0.14,-0.09 -0.01,-0 -0.02,-0.01 -0.03,-0.02 -0.05,-0.03 -0.11,-0.06 -0.16,-0.08 -0.01,-0 -0.02,-0.01 -0.03,-0.02 -0.06,-0.02 -0.11,-0.05 -0.17,-0.07 -0.01,-0 -0.02,-0.01 -0.02,-0.01 -0.06,-0.02 -0.12,-0.04 -0.19,-0.05 -0.01,-0 -0.02,-0 -0.02,-0.01 -5.02,-1.13 -8.35,-5.83 -7.93,-10.83 9.69,-2.58 17.27,-10.37 19.55,-20.17 8.98,-3.76 14.93,-12.64 14.93,-22.45 0,-1.19 -0.96,-2.15 -2.15,-2.15zm-76.43 4.29l9.8 0 0 14.19c0,0.01 0,0.02 0,0.02 0,0.32 0.01,0.64 0.02,0.96 -5.45,-3.19 -9.14,-8.83 -9.83,-15.17zm57.56 64.12l0 10.72 -40.74 0 0 -10.72 40.74 0zm-8.15 -8.58l0 4.29 -24.45 0 0 -4.29 24.45 0zm-18.72 -4.29c0.6,-0.64 1.15,-1.34 1.63,-2.09 1.53,-2.39 2.3,-5.11 2.29,-7.88 0.81,0.07 1.64,0.11 2.47,0.11 0.91,0 1.8,-0.04 2.69,-0.13 -0.02,3.76 1.44,7.33 3.93,10l-13.01 0zm29.37 -37.14c0,12.67 -10.31,22.98 -22.98,22.98 -12.67,0 -22.98,-10.31 -22.98,-22.98l0 -26.77 45.96 0 0 26.77 0 0zm4.27 1.06c0.01,-0.32 0.02,-0.64 0.02,-0.96 0,-0.01 0,-0.02 0,-0.02l0 -14.19 9.81 0c-0.69,6.34 -4.38,11.99 -9.84,15.18z"/>
 </g>
</svg>
