<?xml version="1.0" encoding="UTF-8"?>
<!DOCTYPE svg PUBLIC "-//W3C//DTD SVG 1.1//EN" "http://www.w3.org/Graphics/SVG/1.1/DTD/svg11.dtd">
<!-- Creator: CorelDRAW 2018 (64-Bit Evaluation Version) -->
<svg xmlns="http://www.w3.org/2000/svg" xml:space="preserve" width="35px" height="35px" version="1.1" style="shape-rendering:geometricPrecision; text-rendering:geometricPrecision; image-rendering:optimizeQuality; fill-rule:evenodd; clip-rule:evenodd"
viewBox="0 0 35 35"
 xmlns:xlink="http://www.w3.org/1999/xlink">
 <defs>
  <style type="text/css">
   <![CDATA[
    .fil0 {fill:#305885}
   ]]>
  </style>
 </defs>
 <g id="Layer_x0020_1">
  <metadata id="CorelCorpID_0Corel-Layer"/>
  <path class="fil0" d="M26.92 7.31c-0.21,-0.29 -0.48,-0.51 -0.83,-0.64 -0.22,-0.1 -0.46,-0.15 -0.7,-0.15l0 0 -16.59 0c-0.24,0 -0.48,0.05 -0.7,0.15 -0.35,0.13 -0.62,0.35 -0.83,0.64 -0.21,0.3 -0.31,0.63 -0.31,0.99l0 20.41c0,0.35 0.1,0.68 0.31,0.98 0.21,0.29 0.48,0.51 0.83,0.65 0.22,0.09 0.46,0.14 0.7,0.14 0.49,0 0.93,-0.18 1.31,-0.52l6.98 -6.72 6.99 6.72c0.37,0.33 0.8,0.5 1.31,0.5 0.27,0 0.5,-0.04 0.7,-0.12 0.35,-0.14 0.62,-0.36 0.83,-0.65 0.21,-0.3 0.31,-0.63 0.31,-0.98l0 -20.41c0,-0.36 -0.1,-0.69 -0.31,-0.99zm-1.72 20.9l-6.7 -6.42 -1.41 -1.35 -1.4 1.35 -6.7 6.42 0 -19.66 16.21 0 0 19.66 0 0z"/>
 </g>
</svg>
