<?xml version="1.0" encoding="UTF-8"?>
<!DOCTYPE svg PUBLIC "-//W3C//DTD SVG 1.1//EN" "http://www.w3.org/Graphics/SVG/1.1/DTD/svg11.dtd">
<!-- Creator: CorelDRAW 2018 (64-Bit Evaluation Version) -->
<svg xmlns="http://www.w3.org/2000/svg" xml:space="preserve" width="0.15in" height="0.12in" version="1.1" style="shape-rendering:geometricPrecision; text-rendering:geometricPrecision; image-rendering:optimizeQuality; fill-rule:evenodd; clip-rule:evenodd"
viewBox="0 0 150 120"
 xmlns:xlink="http://www.w3.org/1999/xlink">
 <defs>
  <style type="text/css">
   <![CDATA[
    .fil0 {fill:#305885}
   ]]>
  </style>
 </defs>
 <g id="Layer_x0020_1">
  <metadata id="CorelCorpID_0Corel-Layer"/>
  <path class="fil0" d="M138.46 84.86c0,-5 -3.21,-9.27 -7.67,-10.85l0 -29 5.55 -2.76c1.3,-0.65 2.13,-1.98 2.13,-3.43 0,-1.46 -0.82,-2.78 -2.13,-3.43l-61.65 -30.7c-1.08,-0.54 -2.34,-0.54 -3.42,0l-61.64 30.7c-1.3,0.65 -2.13,1.98 -2.13,3.43 0,1.46 0.83,2.79 2.13,3.43l23.48 11.69 5.46 22.24c0.21,0.86 0.71,1.63 1.43,2.16 9.59,7.19 21,11 33,11 11.99,0 23.4,-3.81 33,-11 0.71,-0.53 1.21,-1.3 1.42,-2.16l5.46 -22.24 10.26 -5.11 0 25.17c-4.47,1.58 -7.67,5.85 -7.67,10.85 0,3.64 1.7,6.89 4.34,9 -2.23,2.57 -4.34,6.09 -4.34,10.19 0,8.17 8.41,14.05 9.37,14.7 1.29,0.87 2.98,0.87 4.28,0 0.96,-0.65 9.37,-6.53 9.37,-14.7 0,-4.09 -2.11,-7.61 -4.34,-10.19 2.64,-2.11 4.34,-5.36 4.34,-9zm-38.18 -11.87c-16.26,11.48 -38.34,11.48 -54.6,0l-3.57 -14.57 29.17 14.52c1.08,0.54 2.34,0.54 3.42,0l29.17 -14.52 -3.57 14.57zm-27.3 -7.76c-2.11,-1.06 -50.65,-25.22 -53.04,-26.41l53.04 -26.41 53.04 26.41c-1.03,0.51 -50.49,25.14 -53.04,26.41zm53.97 45.38c-1.8,-1.7 -3.83,-4.2 -3.83,-6.56 0,-2.36 2.04,-4.87 3.83,-6.56 1.8,1.7 3.84,4.2 3.84,6.56 0,2.36 -2.04,4.87 -3.84,6.56zm0 -21.91c-2.11,0 -3.83,-1.72 -3.83,-3.83 0,-2.12 1.72,-3.84 3.83,-3.84 2.12,0 3.84,1.72 3.84,3.84 0,2.11 -1.72,3.83 -3.84,3.83z"/>
 </g>
</svg>
