<?xml version="1.0" encoding="UTF-8"?>
<!DOCTYPE svg PUBLIC "-//W3C//DTD SVG 1.1//EN" "http://www.w3.org/Graphics/SVG/1.1/DTD/svg11.dtd">
<!-- Creator: CorelDRAW 2018 (64-Bit Evaluation Version) -->
<svg xmlns="http://www.w3.org/2000/svg" xml:space="preserve" width="0.1in" height="0.1in" version="1.1" style="shape-rendering:geometricPrecision; text-rendering:geometricPrecision; image-rendering:optimizeQuality; fill-rule:evenodd; clip-rule:evenodd"
viewBox="0 0 100 100"
 xmlns:xlink="http://www.w3.org/1999/xlink">
 <defs>
  <style type="text/css">
   <![CDATA[
    .fil0 {fill:#00CCFF}
   ]]>
  </style>
 </defs>
 <g id="Layer_x0020_1">
  <metadata id="CorelCorpID_0Corel-Layer"/>
  <g id="_1199803456">
   <path class="fil0" d="M88.69 34.99l-36.17 -26.49c-0.7,-0.51 -1.65,-0.51 -2.34,0l-36.18 26.49c-0.89,0.65 -1.07,1.89 -0.43,2.77 0.65,0.88 1.89,1.07 2.77,0.43l35 -25.63 35 25.63c0.35,0.26 0.76,0.38 1.17,0.38 0.61,0 1.21,-0.28 1.6,-0.81 0.65,-0.88 0.46,-2.13 -0.43,-2.77z"/>
   <path class="fil0" d="M79.1 38.64c-1.09,0 -1.98,0.89 -1.98,1.98l0 31.56 -15.86 0 0 -17.23c0,-5.46 -4.45,-9.91 -9.92,-9.91 -5.47,0 -9.91,4.45 -9.91,9.91l0 17.23 -15.87 0 0 -31.56c0,-1.1 -0.89,-1.98 -1.98,-1.98 -1.1,0 -1.98,0.89 -1.98,1.98l0 33.54c0,1.09 0.89,1.98 1.98,1.98l19.83 0c1.04,0 1.9,-0.81 1.98,-1.83 0,-0.05 0.01,-0.1 0.01,-0.16l0 -19.21c0,-3.28 2.67,-5.95 5.95,-5.95 3.28,0 5.95,2.67 5.95,5.95l0 19.21c0,0.06 0,0.11 0.01,0.15 0.08,1.02 0.93,1.83 1.98,1.83l19.83 0c1.09,0 1.98,-0.89 1.98,-1.98l0 -33.54c0,-1.1 -0.89,-1.98 -1.98,-1.98z"/>
  </g>
 </g>
</svg>
