<?xml version="1.0" encoding="UTF-8"?>
<!DOCTYPE svg PUBLIC "-//W3C//DTD SVG 1.1//EN" "http://www.w3.org/Graphics/SVG/1.1/DTD/svg11.dtd">
<!-- Creator: CorelDRAW 2018 (64-Bit Evaluation Version) -->
<svg xmlns="http://www.w3.org/2000/svg" xml:space="preserve" width="0.1in" height="0.1in" version="1.1" style="shape-rendering:geometricPrecision; text-rendering:geometricPrecision; image-rendering:optimizeQuality; fill-rule:evenodd; clip-rule:evenodd"
viewBox="0 0 100 100"
 xmlns:xlink="http://www.w3.org/1999/xlink">
 <defs>
  <style type="text/css">
   <![CDATA[
    .fil0 {fill:#00CCFF}
   ]]>
  </style>
 </defs>
 <g id="Layer_x0020_1">
  <metadata id="CorelCorpID_0Corel-Layer"/>
  <path class="fil0" d="M23.79 42.01l17.36 0c0.74,0 1.33,-0.6 1.33,-1.33 0,-0.74 -0.6,-1.34 -1.33,-1.34l-17.36 0c-0.74,0 -1.34,0.6 -1.34,1.34 0,0.74 0.6,1.33 1.34,1.33z"/>
  <path class="fil0" d="M58.51 47.35l-34.72 0c-0.74,0 -1.34,0.6 -1.34,1.33 0,0.74 0.6,1.33 1.34,1.33l34.72 0c0.74,0 1.33,-0.6 1.33,-1.33 0,-0.74 -0.59,-1.33 -1.33,-1.33z"/>
  <path class="fil0" d="M58.51 55.37l-34.72 0c-0.74,0 -1.34,0.6 -1.34,1.34 0,0.74 0.6,1.33 1.34,1.33l34.72 0c0.74,0 1.33,-0.6 1.33,-1.33 0,-0.74 -0.59,-1.34 -1.33,-1.34z"/>
  <path class="fil0" d="M82.65 11.39l-45.6 -0.09c-4.37,0 -7.92,3.56 -7.92,7.92l0 6.84 -10.78 0.02c-4.37,0 -7.92,3.55 -7.92,7.92l0 28.24c0,4.37 3.55,7.92 7.92,7.92l8.11 0 0 13.36c0,0.55 0.34,1.05 0.85,1.24 0.16,0.06 0.32,0.09 0.48,0.09 0.37,0 0.73,-0.15 0.99,-0.44l12.96 -14.26 22.21 -0.09c4.37,0 7.92,-3.56 7.92,-7.92l0 -0.15 7.02 7.73c0.26,0.28 0.62,0.44 0.99,0.44 0.16,0 0.32,-0.03 0.48,-0.09 0.52,-0.2 0.85,-0.7 0.85,-1.25l0 -13.35 1.43 0c4.37,0 7.92,-3.56 7.92,-7.92l0 -28.24c0,-4.37 -3.55,-7.92 -7.92,-7.92zm-13.45 50.76c0,2.89 -2.35,5.25 -5.26,5.25l-22.8 0.09c-0.37,0 -0.73,0.16 -0.98,0.44l-11.03 12.14 0 -11.24c0,-0.74 -0.6,-1.34 -1.34,-1.34l-9.44 0c-2.89,0 -5.25,-2.35 -5.25,-5.24l0 -28.24c0,-2.89 2.35,-5.25 5.25,-5.25l12.11 -0.02c0,0 0,0 0,0 0,0 0,0 0,0l33.48 -0.07c2.89,0 5.25,2.35 5.25,5.25l0 24.63 0 3.61zm18.7 -14.6c0,2.89 -2.35,5.25 -5.25,5.25l-2.76 0c-0.74,0 -1.33,0.6 -1.33,1.33l0 11.24 -6.68 -7.35 0 -24.11c0,-4.37 -3.55,-7.92 -7.92,-7.92l-32.15 0.07 0 -6.84c0,-2.9 2.35,-5.25 5.25,-5.25l45.6 0.09c0,0 0,0 0,0 2.89,0 5.25,2.35 5.25,5.25l0 28.24 -0 0z"/>
 </g>
</svg>
