<?xml version="1.0" encoding="utf-8"?>
<!-- Generator: Adobe Illustrator 22.1.0, SVG Export Plug-In . SVG Version: 6.00 Build 0)  -->
<svg version="1.1" id="Layer_1" xmlns="http://www.w3.org/2000/svg" xmlns:xlink="http://www.w3.org/1999/xlink" x="0px" y="0px"
	 viewBox="0 0 107.7 104.7" style="enable-background:new 0 0 107.7 104.7;" xml:space="preserve">
<style type="text/css">
	.st0{fill:#305885;}
	.st1{fill:none;stroke:#305885;stroke-width:2;stroke-miterlimit:10;}
</style>
<g>
	<path class="st0" d="M33.1,72h41.3c3.9,0,7.1-3.2,7.1-7.1V37.5c0-3.9-3.2-7.1-7.1-7.1H33.1c-3.9,0-7.1,3.2-7.1,7.1v27.4
		C26,68.9,29.2,72,33.1,72z M28.8,36.6c0-1.8,1.5-3.3,3.3-3.3h43.3c1.8,0,3.3,1.5,3.3,3.3v29.1c0,1.8-1.5,3.3-3.3,3.3H32.1
		c-1.8,0-3.3-1.5-3.3-3.3C28.8,65.7,28.8,36.6,28.8,36.6z"/>
	<path class="st0" d="M42.3,51.3l-8.4,8.5c-0.8,0.8-0.8,2,0,2.8c0.4,0.4,0.9,0.6,1.4,0.6c0.5,0,1-0.2,1.4-0.6l8.4-8.4l4.5,4.7
		c1.1,1.1,2.6,1.7,4.2,1.7c1.5,0,3-0.6,4.2-1.7l4.6-4.6l7.8,7.7c0.4,0.4,0.9,0.6,1.4,0.6c0.5,0,1-0.2,1.4-0.6c0.8-0.8,0.8-2,0-2.8
		l-7.7-7.7l9.7-9.7c0.8-0.8,0.8-2,0-2.8c-0.8-0.8-2-0.8-2.8,0L55.1,56c-0.4,0.3-0.9,0.5-1.4,0.5c-0.5,0-1-0.2-1.3-0.5L35.3,38.3
		c-0.7-0.8-2-0.8-2.8-0.1c-0.8,0.7-0.8,2-0.1,2.8L42.3,51.3z"/>
</g>
<circle class="st1" cx="53.7" cy="51.3" r="49.1"/>
</svg>
