<?xml version="1.0" encoding="utf-8"?>
<!-- Generator: Adobe Illustrator 22.1.0, SVG Export Plug-In . SVG Version: 6.00 Build 0)  -->
<svg version="1.1" id="Layer_1" xmlns="http://www.w3.org/2000/svg" xmlns:xlink="http://www.w3.org/1999/xlink" x="0px" y="0px"
	 viewBox="0 0 9 8" style="enable-background:new 0 0 9 8;" xml:space="preserve">
<style type="text/css">
	.st0{fill:#B3B3B3;}
</style>
<g>
	<path class="st0" d="M3.5,4.6v3.3h-3V5.3c0-1.4,0.2-2.4,0.5-3C1.4,1.4,2.1,0.7,3,0.3l0.7,1.1C3.1,1.7,2.7,2,2.4,2.5
		C2.2,3,2,3.7,2,4.6H3.5z M8.3,4.6v3.3h-3V5.3c0-1.4,0.2-2.4,0.5-3c0.4-0.8,1.1-1.5,2.1-1.9l0.7,1.1C8,1.7,7.6,2,7.3,2.5
		C7,3,6.9,3.7,6.9,4.6H8.3z"/>
</g>
</svg>
