<?xml version="1.0" encoding="utf-8"?>
<!-- Generator: Adobe Illustrator 22.1.0, SVG Export Plug-In . SVG Version: 6.00 Build 0)  -->
<svg version="1.1" id="Layer_1" xmlns="http://www.w3.org/2000/svg" xmlns:xlink="http://www.w3.org/1999/xlink" x="0px" y="0px"
	 viewBox="0 0 93.7 96.3" style="enable-background:new 0 0 93.7 96.3;" xml:space="preserve">
<style type="text/css">
	.st0{fill:#394347;}
</style>
<g>
	<path class="st0" d="M79.2,34.2H66.9c-0.8,0-1.5,0.7-1.5,1.5s0.7,1.5,1.5,1.5l0,0h12.3c2.7,0,5,1.1,6.8,2.8
		c1.7,1.7,2.8,4.1,2.8,6.8v35.8c0,2.7-1.1,5.1-2.8,6.8c-1.7,1.8-4.1,2.8-6.8,2.8h-65c-2.6,0-5.1-1.1-6.8-2.8
		c-1.8-1.8-2.8-4.2-2.8-6.8V46.7c0-2.6,1.1-5,2.8-6.8c1.8-1.7,4.2-2.8,6.8-2.8h12.3c0.8,0,1.5-0.7,1.5-1.5c0-0.8-0.6-1.5-1.5-1.5
		H14.2c-6.9,0-12.5,5.6-12.5,12.5v35.8C1.7,89.4,7.3,95,14.2,95h65c6.9,0,12.5-5.6,12.5-12.5V46.7C91.7,39.8,86.1,34.2,79.2,34.2z"
		/>
	<path class="st0" d="M35.8,76.2c2.8,2.7,6.6,4.4,10.9,4.4c4.2,0,8.1-1.7,10.9-4.4c2.8-2.7,4.5-6.6,4.5-10.8c0-4.2-1.7-8-4.5-10.8
		c-2.8-2.7-6.6-4.5-10.9-4.4c-4.2,0-8.1,1.7-10.9,4.4c-2.8,2.7-4.5,6.6-4.5,10.8C31.3,69.6,33,73.4,35.8,76.2z M37.9,56.7
		c2.3-2.2,5.4-3.6,8.8-3.6c3.5,0,6.6,1.4,8.8,3.6c2.3,2.2,3.6,5.3,3.6,8.7c0,3.4-1.4,6.5-3.6,8.7c-2.3,2.2-5.4,3.6-8.8,3.6
		c-3.5,0-6.6-1.4-8.8-3.6c-2.3-2.2-3.6-5.3-3.6-8.7C34.2,62,35.6,59,37.9,56.7z"/>
	<path class="st0" d="M74.9,52.9c0.8,0,1.5-0.7,1.5-1.5S75.7,50,74.9,50h-3.4c-0.8,0-1.5,0.7-1.5,1.5s0.7,1.5,1.5,1.5H74.9z"/>
	<path class="st0" d="M46.7,37.1c0.8,0,1.5-0.7,1.5-1.5V10l9.3,9.3c0.6,0.6,1.5,0.6,2.1,0s0.6-1.5,0-2.1L47.7,5.4l0,0
		c-0.1-0.1-0.3-0.2-0.5-0.3l0,0C47,5,46.9,5,46.7,5h0c-0.2,0-0.4,0-0.5,0.1l0,0c-0.2,0.1-0.3,0.2-0.5,0.3l0,0L33.8,17.2
		c-0.6,0.6-0.6,1.5,0,2.1s1.5,0.6,2.1,0l0,0l9.3-9.3v25.7C45.2,36.5,45.9,37.1,46.7,37.1z"/>
</g>
</svg>
