<?xml version="1.0" encoding="utf-8"?>
<!-- Generator: Adobe Illustrator 22.1.0, SVG Export Plug-In . SVG Version: 6.00 Build 0)  -->
<svg version="1.1" id="Layer_1" xmlns="http://www.w3.org/2000/svg" xmlns:xlink="http://www.w3.org/1999/xlink" x="0px" y="0px"
	 viewBox="0 0 100 79.5" style="enable-background:new 0 0 100 79.5;" xml:space="preserve">
<style type="text/css">
	.st0{fill:#FFFFFF;}
</style>
<g>
	<circle class="st0" cx="50" cy="45.4" r="13.8"/>
	<path class="st0" d="M80.6,15.4H67.1l-1.8-7.2c-0.5-2.1-2.5-3.6-4.7-3.6H39.3c-2.2,0-4.1,1.5-4.7,3.6l-1.8,7.2H19.4
		C11.5,15.4,5,21.9,5,29.8V61c0,7.9,6.5,14.4,14.4,14.4h61.2C88.5,75.4,95,68.9,95,61V29.8C95,21.9,88.5,15.4,80.6,15.4z M50,66.4
		c-11.6,0-21-9.4-21-21s9.4-21,21-21s21,9.4,21,21S61.6,66.4,50,66.4z M81.4,30.3c-2,0-3.6-1.6-3.6-3.6s1.6-3.6,3.6-3.6
		s3.6,1.6,3.6,3.6S83.4,30.3,81.4,30.3z"/>
</g>
</svg>
