<?xml version="1.0" encoding="utf-8"?>
<!-- Generator: Adobe Illustrator 22.1.0, SVG Export Plug-In . SVG Version: 6.00 Build 0)  -->
<svg version="1.1" id="Layer_1" xmlns="http://www.w3.org/2000/svg" xmlns:xlink="http://www.w3.org/1999/xlink" x="0px" y="0px"
	 viewBox="0 0 6 11.4" style="enable-background:new 0 0 6 11.4;" xml:space="preserve">
<style type="text/css">
	.st0{fill-rule:evenodd;clip-rule:evenodd;fill:#305885;}
</style>
<g>
	<path class="st0" d="M5,5.8c0.2-1.9-0.5-3.8-1.9-5.2c-0.1-0.1-0.3-0.1-0.3,0C1.4,1.9,0.8,3.9,0.9,5.8C0.5,6.3,0.2,7,0.2,7.7
		S0.5,9.1,1,9.6c0.1,0.1,0.4,0.1,0.4-0.2c0-0.1-0.1-0.3-0.1-0.4c0-0.4,0.1-0.7,0.3-1c0,0,0.1,0,0.1,0h2.6c0.1,0,0.1,0,0.1,0
		c0.2,0.3,0.3,0.6,0.3,1c0,0.1-0.1,0.3-0.1,0.4C4.6,9.7,4.9,9.7,5,9.6c0.5-0.5,0.8-1.2,0.8-1.9S5.5,6.3,5,5.8L5,5.8z M3,1
		C3.4,1.5,3.7,2,4,2.5H2C2.2,2,2.6,1.5,3,1L3,1z M0.8,8.6C0.7,8.3,0.7,8,0.7,7.7c0-0.5,0.1-0.9,0.4-1.3c0,0,0.3,0.9,0.3,1.1
		C1.1,7.8,0.9,8.2,0.8,8.6L0.8,8.6z M4.1,7.6H1.8C1.2,6.1,1.2,4.4,1.8,2.9h2.4C4.7,4.4,4.7,6.1,4.1,7.6L4.1,7.6z M4.6,7.5
		c0.1-0.3,0.3-1.1,0.3-1.1c0.3,0.4,0.4,0.8,0.4,1.3c0,0.3-0.1,0.7-0.2,1C5,8.2,4.9,7.8,4.6,7.5L4.6,7.5z"/>
	<path class="st0" d="M2.1,8.4C2,8.4,1.8,8.5,1.8,8.6v1.1C1.8,9.9,2,10,2.1,10c0.1,0,0.2-0.1,0.2-0.2V8.6C2.3,8.5,2.2,8.4,2.1,8.4
		L2.1,8.4z"/>
	<path class="st0" d="M3,8.4c-0.1,0-0.1,0-0.2,0.1l0,0c0,0,0,0.1-0.1,0.1c0,0,0,0,0,0.1v2.3v0c0,0.1,0.1,0.2,0.2,0.2
		c0.1,0,0.2-0.1,0.2-0.2v0V8.6c0,0,0-0.1,0-0.1C3.2,8.4,3.1,8.4,3,8.4L3,8.4z"/>
	<path class="st0" d="M3.9,8.4c-0.1,0-0.2,0.1-0.2,0.2v1.1c0,0.1,0.1,0.2,0.2,0.2C4,10,4.1,9.9,4.1,9.7V8.6C4.1,8.5,4,8.4,3.9,8.4
		L3.9,8.4z"/>
</g>
</svg>
