<?xml version="1.0" encoding="UTF-8"?>
<!DOCTYPE svg PUBLIC "-//W3C//DTD SVG 1.1//EN" "http://www.w3.org/Graphics/SVG/1.1/DTD/svg11.dtd">
<!-- Creator: CorelDRAW 2018 (64-Bit Evaluation Version) -->
<svg xmlns="http://www.w3.org/2000/svg" xml:space="preserve" width="0.1in" height="0.1in" version="1.1" style="shape-rendering:geometricPrecision; text-rendering:geometricPrecision; image-rendering:optimizeQuality; fill-rule:evenodd; clip-rule:evenodd"
viewBox="0 0 100 100"
 xmlns:xlink="http://www.w3.org/1999/xlink">
 <defs>
  <style type="text/css">
   <![CDATA[
    .str0 {stroke:white;stroke-width:3;stroke-miterlimit:22.9256}
    .fil0 {fill:white}
   ]]>
  </style>
 </defs>
 <g id="Layer_x0020_1">
  <metadata id="CorelCorpID_0Corel-Layer"/>
  <path class="fil0 str0" d="M85.02 81.24l-17.46 -17.46c4.68,-5.39 7.52,-12.41 7.52,-20.09 0,-16.9 -13.75,-30.64 -30.64,-30.64 -16.9,0 -30.64,13.75 -30.64,30.64 0,16.89 13.75,30.64 30.64,30.64 7.68,0 14.71,-2.84 20.09,-7.52l17.46 17.46c0.41,0.41 0.97,0.64 1.52,0.64 0.54,0 1.1,-0.21 1.51,-0.64 0.83,-0.83 0.83,-2.2 0,-3.03zm-66.93 -37.56c0,-14.53 11.82,-26.33 26.33,-26.33 14.53,0 26.34,11.82 26.34,26.33 0,14.52 -11.81,26.35 -26.34,26.35 -14.51,0 -26.33,-11.82 -26.33,-26.35z"/>
 </g>
</svg>
