<?xml version="1.0" encoding="UTF-8"?>
<!DOCTYPE svg PUBLIC "-//W3C//DTD SVG 1.1//EN" "http://www.w3.org/Graphics/SVG/1.1/DTD/svg11.dtd">
<!-- Creator: CorelDRAW 2018 (64-Bit Evaluation Version) -->
<svg xmlns="http://www.w3.org/2000/svg" xml:space="preserve" width="0.1in" height="0.1in" version="1.1" style="shape-rendering:geometricPrecision; text-rendering:geometricPrecision; image-rendering:optimizeQuality; fill-rule:evenodd; clip-rule:evenodd"
viewBox="0 0 100 100"
 xmlns:xlink="http://www.w3.org/1999/xlink">
 <defs>
  <style type="text/css">
   <![CDATA[
    .fil0 {fill:#00CCFF}
   ]]>
  </style>
 </defs>
 <g id="Layer_x0020_1">
  <metadata id="CorelCorpID_0Corel-Layer"/>
  <path class="fil0" d="M28.55 32.57c3.98,0 7.28,-2.96 7.83,-6.79l44.21 0c0.63,0 1.13,-0.5 1.13,-1.13 0,-0.63 -0.5,-1.13 -1.13,-1.13l-44.21 0c-0.56,-3.83 -3.85,-6.79 -7.83,-6.79 -4.37,0 -7.92,3.55 -7.92,7.92 0,4.37 3.55,7.92 7.92,7.92zm0 -13.57c3.12,0 5.66,2.54 5.66,5.66 0,3.12 -2.54,5.66 -5.66,5.66 -3.12,0 -5.65,-2.54 -5.65,-5.66 0,-3.12 2.54,-5.66 5.65,-5.66z"/>
  <path class="fil0" d="M73.8 64.24c-3.98,0 -7.28,2.96 -7.83,6.79l-44.21 0c-0.62,0 -1.13,0.5 -1.13,1.13 0,0.63 0.51,1.13 1.13,1.13l44.21 0c0.56,3.83 3.85,6.79 7.83,6.79 4.37,0 7.92,-3.55 7.92,-7.92 0,-4.37 -3.55,-7.92 -7.92,-7.92zm0 13.57c-3.12,0 -5.66,-2.54 -5.66,-5.66 0,-3.12 2.54,-5.66 5.66,-5.66 3.12,0 5.65,2.54 5.65,5.66 0,3.12 -2.54,5.66 -5.65,5.66z"/>
  <path class="fil0" d="M80.59 47.28l-21.08 0c-0.45,-4.07 -3.91,-7.26 -8.1,-7.26 -4.19,0 -7.65,3.18 -8.1,7.26l-21.55 0c-0.62,0 -1.13,0.5 -1.13,1.13 0,0.63 0.51,1.13 1.13,1.13l21.62 0c0.65,3.85 4,6.79 8.03,6.79 4.03,0 7.38,-2.94 8.03,-6.79l21.15 0c0.63,0 1.13,-0.5 1.13,-1.13 0,-0.63 -0.5,-1.13 -1.13,-1.13zm-29.18 6.79c-3.24,0 -5.89,-2.65 -5.89,-5.89 0,-3.25 2.65,-5.89 5.89,-5.89 3.25,0 5.89,2.65 5.89,5.89 0,3.24 -2.65,5.89 -5.89,5.89z"/>
 </g>
</svg>
