<?xml version="1.0" encoding="UTF-8"?>
<!DOCTYPE svg PUBLIC "-//W3C//DTD SVG 1.1//EN" "http://www.w3.org/Graphics/SVG/1.1/DTD/svg11.dtd">
<!-- Creator: CorelDRAW 2018 (64-Bit Evaluation Version) -->
<svg xmlns="http://www.w3.org/2000/svg" xml:space="preserve" width="0.1in" height="0.1in" version="1.1" style="shape-rendering:geometricPrecision; text-rendering:geometricPrecision; image-rendering:optimizeQuality; fill-rule:evenodd; clip-rule:evenodd"
viewBox="0 0 100 100"
 xmlns:xlink="http://www.w3.org/1999/xlink">
 <defs>
  <style type="text/css">
   <![CDATA[
    .fil0 {fill:#00CCFF}
   ]]>
  </style>
 </defs>
 <g id="Layer_x0020_1">
  <metadata id="CorelCorpID_0Corel-Layer"/>
  <path class="fil0" d="M68.54 35.09c-13.69,-8.33 -7.27,-20.09 -7,-20.58 0.4,-0.7 0.4,-1.55 -0,-2.24 -0.4,-0.7 -1.14,-1.12 -1.94,-1.12 -7.05,0 -12.57,2 -16.41,5.95 -6.56,6.75 -6.26,17.25 -6.13,21.74 0.02,0.5 0.03,0.93 0.03,1.24 0,3.33 0.54,6.41 1.01,9.12 0.3,1.75 0.57,3.26 0.61,4.44 0.05,1.27 -0.18,1.56 -0.19,1.57 -0.04,0.04 -0.31,0.19 -1.06,0.19 -0.85,0 -1.48,-0.28 -2.03,-0.9 -2.17,-2.43 -2.32,-9.07 -1.91,-12.69 0.07,-0.64 -0.13,-1.28 -0.56,-1.76 -0.43,-0.48 -1.04,-0.75 -1.68,-0.75 -5.83,0 -10.2,9.54 -10.2,18.07 0,4.01 0.81,7.94 2.4,11.68 1.54,3.61 3.73,6.87 6.52,9.69 5.81,5.87 13.46,9.1 21.56,9.1 8.13,0 15.78,-3.19 21.55,-8.97 5.76,-5.77 8.93,-13.41 8.93,-21.5 0,-10.33 -8.08,-18.99 -13.51,-22.3zm-16.96 48.28c-14.08,0 -25.98,-11.9 -25.98,-25.98 0,-3.43 0.81,-7.02 2.24,-9.86 0.33,-0.67 0.68,-1.23 1.01,-1.71 0.04,3.71 0.63,8.76 3.23,11.68 1.4,1.57 3.26,2.41 5.39,2.41 1.98,0 3.5,-0.6 4.49,-1.79 1.87,-2.22 1.3,-5.51 0.57,-9.68 -0.44,-2.54 -0.94,-5.41 -0.94,-8.35 0,-0.38 -0.01,-0.84 -0.03,-1.37 -0.12,-4.25 -0.38,-13.09 4.85,-18.48 2.35,-2.42 5.63,-3.89 9.78,-4.39 -0.47,1.56 -0.87,3.53 -0.89,5.74 -0.04,4.87 1.83,11.84 10.9,17.36 4.39,2.67 11.35,10.04 11.35,18.45 0,14.33 -11.65,25.98 -25.98,25.98z"/>
 </g>
</svg>
