<?xml version="1.0" encoding="UTF-8"?>
<!DOCTYPE svg PUBLIC "-//W3C//DTD SVG 1.1//EN" "http://www.w3.org/Graphics/SVG/1.1/DTD/svg11.dtd">
<!-- Creator: CorelDRAW 2018 (64-Bit Evaluation Version) -->
<svg xmlns="http://www.w3.org/2000/svg" xml:space="preserve" width="0.1in" height="0.12in" version="1.1" style="shape-rendering:geometricPrecision; text-rendering:geometricPrecision; image-rendering:optimizeQuality; fill-rule:evenodd; clip-rule:evenodd"
viewBox="0 0 100 120"
 xmlns:xlink="http://www.w3.org/1999/xlink">
 <defs>
  <style type="text/css">
   <![CDATA[
    .str0 {stroke:#305885;stroke-width:3.33;stroke-miterlimit:22.9256}
    .fil0 {fill:#305885}
   ]]>
  </style>
 </defs>
 <g id="Layer_x0020_1">
  <metadata id="CorelCorpID_0Corel-Layer"/>
  <path class="fil0 str0" d="M86.29 56.7c1.52,-1.49 2.06,-3.67 1.41,-5.69 -0.66,-2.03 -2.38,-3.47 -4.48,-3.78l-18.75 -2.72c-0.8,-0.12 -1.49,-0.62 -1.85,-1.34l-8.38 -16.99c-0.94,-1.91 -2.85,-3.09 -4.98,-3.09 -2.13,0 -4.04,1.19 -4.98,3.09l-8.38 16.99c-0.36,0.72 -1.05,1.22 -1.85,1.34l-18.75 2.72c-2.11,0.31 -3.82,1.75 -4.48,3.78 -0.66,2.03 -0.12,4.2 1.41,5.69l13.57 13.22c0.58,0.56 0.84,1.37 0.71,2.17l-3.2 18.67c-0.36,2.1 0.49,4.18 2.21,5.43 1.72,1.25 3.96,1.42 5.85,0.42l16.77 -8.81c0.72,-0.38 1.57,-0.38 2.28,0l16.77 8.81c0.82,0.43 1.7,0.65 2.59,0.65 1.15,0 2.29,-0.36 3.26,-1.07 1.72,-1.26 2.57,-3.33 2.21,-5.43l-3.2 -18.67c-0.13,-0.8 0.13,-1.61 0.71,-2.17l13.57 -13.22zm-17.33 15.92l3.2 18.67c0.16,0.94 -0.2,1.84 -0.98,2.4 -0.77,0.56 -1.74,0.63 -2.58,0.19l-16.77 -8.82c-0.81,-0.42 -1.7,-0.63 -2.59,-0.63 -0.89,0 -1.78,0.21 -2.58,0.64l-16.77 8.81c-0.85,0.44 -1.81,0.37 -2.58,-0.19 -0.78,-0.56 -1.14,-1.46 -0.98,-2.4l3.2 -18.67c0.31,-1.8 -0.29,-3.64 -1.6,-4.91l-13.57 -13.22c-0.69,-0.67 -0.92,-1.61 -0.62,-2.52 0.29,-0.91 1.03,-1.53 1.98,-1.67l18.75 -2.72c1.81,-0.26 3.37,-1.4 4.19,-3.04l8.38 -16.99c0.42,-0.85 1.24,-1.37 2.2,-1.37 0.95,0 1.78,0.51 2.2,1.37l8.38 16.99c0.81,1.64 2.37,2.78 4.18,3.04l18.75 2.72c0.94,0.14 1.68,0.76 1.98,1.67 0.3,0.91 0.06,1.85 -0.62,2.52l-13.57 13.22c-1.31,1.28 -1.91,3.11 -1.6,4.91z"/>
 </g>
</svg>
