<?xml version="1.0" encoding="UTF-8"?>
<!DOCTYPE svg PUBLIC "-//W3C//DTD SVG 1.1//EN" "http://www.w3.org/Graphics/SVG/1.1/DTD/svg11.dtd">
<!-- Creator: CorelDRAW 2018 (64-Bit Evaluation Version) -->
<svg xmlns="http://www.w3.org/2000/svg" xml:space="preserve" width="0.12in" height="0.12in" version="1.1" style="shape-rendering:geometricPrecision; text-rendering:geometricPrecision; image-rendering:optimizeQuality; fill-rule:evenodd; clip-rule:evenodd"
viewBox="0 0 120 120"
 xmlns:xlink="http://www.w3.org/1999/xlink">
 <defs>
  <style type="text/css">
   <![CDATA[
    .str0 {stroke:#305885;stroke-width:3;stroke-miterlimit:22.9256}
    .fil0 {fill:#305885}
   ]]>
  </style>
 </defs>
 <g id="Layer_x0020_1">
  <metadata id="CorelCorpID_0Corel-Layer"/>
  <path class="fil0 str0" d="M107.56 28.34l-23.72 0 0 -4.74c0,-5.24 -4.26,-9.49 -9.49,-9.49l-28.47 0c-5.23,0 -9.49,4.26 -9.49,9.49l0 4.74 -23.72 0c-5.23,0 -9.49,4.26 -9.49,9.49l0 61.68c0,5.24 4.26,9.49 9.49,9.49l94.9 0c5.23,0 9.49,-4.26 9.49,-9.49l0 -61.68c0,-5.23 -4.26,-9.49 -9.49,-9.49zm-66.43 -4.74c0,-2.62 2.13,-4.75 4.74,-4.75l28.47 0c2.62,0 4.75,2.13 4.75,4.75l0 4.74 -37.96 0 0 -4.74zm71.17 75.91c0,2.62 -2.13,4.75 -4.74,4.75l-94.9 0c-2.61,0 -4.74,-2.13 -4.74,-4.75l0 -34.53c1.4,0.82 3.01,1.32 4.74,1.32l37.96 0 0 7.12c0,1.31 1.06,2.37 2.37,2.37l14.24 0c1.31,0 2.37,-1.06 2.37,-2.37l0 -7.12 37.96 0c1.74,0 3.34,-0.5 4.74,-1.32l0 34.53 0 0zm-56.94 -28.47l0 -9.49 9.49 0 0 9.49 -9.49 0zm56.94 -14.23c0,2.61 -2.13,4.74 -4.74,4.74l-37.96 0 0 -2.37c0,-1.31 -1.06,-2.37 -2.37,-2.37l-14.24 0c-1.31,0 -2.37,1.06 -2.37,2.37l0 2.37 -37.96 0c-2.61,0 -4.74,-2.13 -4.74,-4.74l0 -18.98c0,-2.61 2.13,-4.74 4.74,-4.74l94.9 0c2.61,0 4.74,2.13 4.74,4.74l0 18.98z"/>
 </g>
</svg>
