<?xml version="1.0" encoding="utf-8"?>
<!-- Generator: Adobe Illustrator 22.1.0, SVG Export Plug-In . SVG Version: 6.00 Build 0)  -->
<svg version="1.1" id="Layer_1" xmlns="http://www.w3.org/2000/svg" xmlns:xlink="http://www.w3.org/1999/xlink" x="0px" y="0px"
	 viewBox="0 0 72.1 71.5" style="enable-background:new 0 0 72.1 71.5;" xml:space="preserve">
<style type="text/css">
	.st0{fill-rule:evenodd;clip-rule:evenodd;fill:#98BAE0;}
</style>
<g>
	<path class="st0" d="M69.5,65.7H3.2c-1.3,0-2.6,0.9-2.6,2.6c0,1.3,1.3,2.2,2.6,2.2h66.7c1.3,0,2.2-0.9,2.2-2.2
		C72.1,66.6,71.2,65.7,69.5,65.7L69.5,65.7z"/>
	<path class="st0" d="M0.6,43.6v11.7c0,0.9,0.4,1.3,0.9,1.7c0.4,0.9,0.9,0.9,1.7,0.9h11.7c0.9,0,1.3-0.4,1.7-0.9l40.7-40.7
		c0.9-0.9,0.9-2.6,0-3.5L45.6,1.2c-0.9-0.9-2.6-0.9-3.5,0l-8.2,8.2L1.4,41.9C1,42.3,0.6,42.8,0.6,43.6L0.6,43.6z M43.9,6.4l8.2,8.2
		l-4.8,4.8l-8.2-8.2L43.9,6.4z M5.8,44.5l29.9-29.9l8.2,8.2L14,52.7H5.8V44.5L5.8,44.5z"/>
</g>
</svg>
