<?xml version="1.0" encoding="UTF-8"?>
<!DOCTYPE svg PUBLIC "-//W3C//DTD SVG 1.1//EN" "http://www.w3.org/Graphics/SVG/1.1/DTD/svg11.dtd">
<!-- Creator: CorelDRAW 2018 (64-Bit Evaluation Version) -->
<svg xmlns="http://www.w3.org/2000/svg" xml:space="preserve" width="0.1in" height="0.12in" version="1.1" style="shape-rendering:geometricPrecision; text-rendering:geometricPrecision; image-rendering:optimizeQuality; fill-rule:evenodd; clip-rule:evenodd"
viewBox="0 0 100 120"
 xmlns:xlink="http://www.w3.org/1999/xlink">
 <defs>
  <style type="text/css">
   <![CDATA[
    .fil0 {fill:#305885}
   ]]>
  </style>
 </defs>
 <g id="Layer_x0020_1">
  <metadata id="CorelCorpID_0Corel-Layer"/>
  <path class="fil0" d="M49.46 2.43c-20.61,0 -37.39,16.77 -37.39,37.39 0,20.61 16.77,37.39 37.39,37.39 20.61,0 37.39,-16.77 37.39,-37.39 0,-20.61 -16.77,-37.39 -37.39,-37.39zm0 67.42c-16.56,0 -30.03,-13.47 -30.03,-30.03 0,-16.56 13.47,-30.03 30.03,-30.03 16.56,0 30.03,13.47 30.03,30.03 0,16.56 -13.47,30.03 -30.03,30.03z"/>
  <path class="fil0" d="M75.56 109.29l-1.84 -43.64 -7.35 0.31 1.61 38.04 -15.19 -13.09c-1.9,-1.78 -4.76,-1.78 -6.66,0l-15.19 13.09 1.61 -38.03 -7.35 -0.31 -1.84 43.64c0,0.05 -0,0.1 -0,0.15 0,1.95 1.13,3.73 2.89,4.53 1.76,0.81 3.78,0.52 5.28,-0.76l17.95 -15.46 17.95 15.47c0.93,0.8 2.07,1.21 3.22,1.21 0.69,0 1.39,-0.15 2.05,-0.45 1.75,-0.8 2.88,-2.58 2.88,-4.53 0,-0.05 0,-0.1 -0,-0.15z"/>
  <path class="fil0" d="M65.79 28.64c-1.44,-1.44 -3.76,-1.44 -5.2,0l-16.02 16.02 -7.45 -7.54c-1.43,-1.44 -3.76,-1.46 -5.2,-0.03 -1.44,1.43 -1.46,3.76 -0.03,5.2l10.05 10.17c0.69,0.7 1.63,1.09 2.61,1.09 0,0 0.01,0 0.01,0 0.97,0 1.91,-0.39 2.6,-1.08l18.63 -18.63c1.44,-1.44 1.44,-3.77 0,-5.2z"/>
 </g>
</svg>
