<svg id="Layer_1" data-name="Layer 1" xmlns="http://www.w3.org/2000/svg" viewBox="0 0 9.16 9.16"><defs><style>.cls-1{fill:#e6e6e6;}.cls-1,.cls-2{fill-rule:evenodd;}.cls-2{fill:#305885;}</style></defs><title>project-information-menu</title><path class="cls-1" d="M2.68.48H7.53A2.16,2.16,0,0,1,9.68,2.64V7.49A2.15,2.15,0,0,1,7.53,9.64H2.68A2.15,2.15,0,0,1,.53,7.49V2.64A2.16,2.16,0,0,1,2.68.48Z" transform="translate(-0.53 -0.48)"/><path class="cls-2" d="M3.53,4.57a.11.11,0,0,1,0-.09.08.08,0,0,1,0-.08.08.08,0,0,1,.14,0L5.12,5.81,6.54,4.4a.08.08,0,0,1,.14,0,.11.11,0,0,1,0,.17l-1.5,1.5a.14.14,0,0,1-.15,0l-1.5-1.5Z" transform="translate(-0.53 -0.48)"/></svg>