<?xml version="1.0" encoding="utf-8"?>
<!-- Generator: Adobe Illustrator 17.0.0, SVG Export Plug-In . SVG Version: 6.00 Build 0)  -->
<!DOCTYPE svg PUBLIC "-//W3C//DTD SVG 1.1//EN" "http://www.w3.org/Graphics/SVG/1.1/DTD/svg11.dtd">
<svg version="1.1" id="Layer_1" xmlns="http://www.w3.org/2000/svg" xmlns:xlink="http://www.w3.org/1999/xlink" x="0px" y="0px"
	 width="1500px" height="500px" viewBox="0 0 1500 500" enable-background="new 0 0 1500 500" xml:space="preserve">
<path opacity="0.9" fill="#FF3366" d="M755.699,325.948h25.267V215.697h-25.267V325.948z M847.997,260.799
	c-12.95-4.183-24.855-7.52-24.855-15.453v-0.419c0-6.473,5.639-11.068,15.453-11.068c4.787,0,10.145,1.098,15.683,3.041
	l-0.003-0.013c0,0,0.054,0.027,0.159,0.074c0.476,0.169,0.96,0.358,1.443,0.54c3.997,1.264,14.777,2.953,23.862-11.155
	c-11.696-7.73-26.727-12.534-40.517-12.534c-21.922,0-39.254,12.736-39.254,33.622v0.419c0,21.088,18.166,27.77,34.453,32.365
	c12.949,3.966,24.645,6.889,24.645,15.449v0.415c0,7.311-6.267,11.906-17.125,11.906c-7.22,0-15.125-1.905-23.004-5.618
	c-2.267-0.956-14.061-4.99-24.146,9.351c13.74,10.73,30.953,16.314,46.524,16.314c22.963,0,40.926-11.48,40.926-34.666v-0.415
	C882.241,273.12,864.075,265.809,847.997,260.799z M686.798,296.711l-29.651-81.014H630l45.315,111.082h22.76l45.104-111.082H716.66
	L686.798,296.711z M999.59,213.396c-33.828,0-58.889,26.098-58.889,57.842c0,31.527,24.848,57.213,58.47,57.213
	c34.041,0,59.099-26.102,59.099-57.632C1058.27,239.082,1033.415,213.396,999.59,213.396z M999.59,306.529
	c-19.632,0-33.622-16.081-33.622-35.71c0-19.416,12.946-35.291,33.203-35.291c19.835,0,33.828,16.078,33.828,35.71
	C1032.999,290.657,1020.05,306.529,999.59,306.529z M1133.226,213.396c-17.125,0-27.355,8.98-34.456,19.419v-17.118h-25.264v110.251
	h25.264v-62.23c0-17.122,10.233-27.351,24.852-27.351c15.037,0,23.595,9.811,23.595,26.933v62.649h25.267v-70.163
	C1172.484,230.102,1158.075,213.396,1133.226,213.396z M898.94,325.948h25.271V215.697H898.94V325.948z"/>
<g opacity="0.9">
	<path fill="#FF3366" d="M651,144.932C651,131.715,640.285,121,627.068,121H410.932C397.715,121,387,131.715,387,144.932v216.137
		C387,374.285,397.715,385,410.932,385h216.137C640.285,385,651,374.285,651,361.068V144.932z M474.968,172.533
		c8.777,0,16.128,6.877,16.128,15.886c0,9.016-7.351,15.894-16.128,15.894c-8.775,0-16.126-6.878-16.126-15.894
		C458.842,179.41,466.193,172.533,474.968,172.533z M582.862,324.55c-16.364,0-24.189-9.718-24.189-23.004
		c0-3.79,0.472-7.826,1.658-11.858l7.828-27.984c0.948-3.084,1.186-5.928,1.186-8.538c0-9.009-5.455-14.466-14.23-14.466
		c-11.148,0-18.5,8-22.293,23.417L517.642,323h-26.561l4.767-19.133c-7.807,12.825-18.65,20.769-32.026,20.769
		c-16.127,0-23.717-9.29-23.717-23.285c0-3.552,0.476-7.906,1.423-11.938L453.623,240h-18.735l5.692-21h45.061l-17.789,70.562
		c-1.186,4.509-1.66,8.25-1.66,10.854c0,4.512,2.221,5.831,5.694,6.614c2.114,0.474,18.968,0.143,28.145-20.253L511.714,240h-18.973
		l5.692-21h40.555l-5.217,23.842c7.113-13.283,21.344-25.903,35.336-25.903c14.941,0,27.275,10.644,27.275,31.04
		c0,5.215-0.712,10.893-2.609,17.295l-7.591,27.265c-0.709,2.852-1.186,5.221-1.186,7.355c0,4.741,1.898,7.112,5.457,7.112
		c3.557,0,8.063-2.615,13.281-17.074l10.434,4.029C608.002,315.542,596.855,324.55,582.862,324.55z"/>
</g>
</svg>
